<svg width="50" height="50" viewBox="0 0 50 50" fill="none" xmlns="http://www.w3.org/2000/svg">
<path d="M24.998 35.8C30.9638 35.8 35.8 30.9638 35.8 24.998C35.8 19.0323 30.9638 14.1961 24.998 14.1961C19.0323 14.1961 14.1961 19.0323 14.1961 24.998C14.1961 30.9638 19.0323 35.8 24.998 35.8Z" fill="white"/>
<path d="M24.998 14.3922C30.8461 14.3922 35.6039 19.1499 35.6039 24.998C35.6039 30.8461 30.8461 35.6078 24.998 35.6078C19.1499 35.6078 14.3922 30.8461 14.3922 24.998C14.3922 19.1499 19.1499 14.3922 24.998 14.3922ZM24.998 14C18.9264 14 14 18.9264 14 24.998C14 31.0697 18.9264 35.9961 24.998 35.9961C31.0697 35.9961 35.9961 31.0697 35.9961 24.998C35.9961 18.9264 31.0736 14 24.998 14Z" fill="#020203"/>
<path d="M25.0686 23.1585C24.9078 23.1977 24.7745 23.2291 24.6372 23.2605C24.496 23.2958 24.3548 23.3193 24.2136 23.3585C24.0253 23.4095 23.9939 23.4566 23.99 23.6527C23.9861 23.8017 23.99 23.9547 23.99 24.1195C23.8763 24.1508 23.7821 24.1783 23.688 24.2018C23.437 24.2685 23.186 24.3313 22.9388 24.3979C22.829 24.4293 22.7427 24.4881 22.7427 24.6215C22.7427 24.747 22.7937 24.8137 22.9428 24.8608C23.1114 24.9157 23.284 24.9588 23.4527 25.0098C23.6331 25.0647 23.8096 25.1196 23.9822 25.1706C23.9861 25.2451 23.9939 25.2883 23.9939 25.3314C24.0057 26.1394 24.0214 26.9474 24.0253 27.7554C24.0253 27.9319 24.0881 28.0378 24.2567 28.0966C24.4646 28.1672 24.6686 28.2535 24.8725 28.3359C24.9314 28.3594 24.9823 28.3908 25.0529 28.4222C25.0529 28.5045 25.0529 28.5791 25.0529 28.6536C25.0412 29.3557 25.0216 30.0538 25.0176 30.7559C25.0098 31.9444 25.0137 33.1328 25.0098 34.3213C25.0098 34.4389 24.9941 34.5605 24.9823 34.6782C24.9706 34.788 24.9667 34.8939 25.0529 34.9763C25.3314 35.0743 25.4295 35.0077 25.4373 34.7174C25.4452 34.2938 25.4648 33.8741 25.4726 33.4505C25.4883 32.2307 25.5001 31.0148 25.5119 29.795C25.5158 29.4145 25.5119 29.038 25.5158 28.6575C25.5158 28.5908 25.5236 28.5202 25.5275 28.4457C25.7943 28.332 26.0453 28.2221 26.3002 28.1162C26.916 27.8535 27.5318 27.5946 28.1476 27.3318C28.2653 27.2808 28.3477 27.2063 28.3516 27.0651C28.3594 26.8376 28.379 26.614 28.3869 26.3865C28.4026 25.9825 28.4143 25.5785 28.4261 25.1745C28.4261 25.151 28.43 25.1236 28.43 25.1C28.4536 24.7117 28.4771 24.3195 28.5006 23.9312C28.5163 23.6723 28.5281 23.4134 28.5359 23.1585C28.5398 23.0291 28.4849 22.9428 28.3555 22.9036C28.3045 22.8879 28.2535 22.8604 28.2025 22.8369C28.2221 22.3858 28.2457 21.9465 28.2614 21.5268C28.0692 21.4052 28.0143 21.4052 27.8495 21.5229C27.8299 21.9308 27.8103 22.3505 27.7907 22.7937C27.6769 22.7702 27.5789 22.7467 27.4808 22.7349C27.3239 22.7192 27.1631 22.6839 27.0141 22.7074C26.6415 22.7741 26.2767 22.8722 25.9041 22.9545C25.8099 22.9781 25.7119 22.9938 25.6178 23.0134C25.6178 22.2838 25.6178 21.5778 25.6178 20.8287C25.7433 20.9816 25.8766 20.9424 26.0061 20.9228C26.21 20.8914 26.4179 20.86 26.6219 20.8247C27.1671 20.7267 27.7122 20.6286 28.2614 20.5306C28.4536 20.4953 28.5673 20.3698 28.685 20.205C27.5161 18.6675 26.3473 17.1339 25.1942 15.616C24.9902 15.5454 22.5231 15.4512 22.2642 15.5022C22.2093 15.6121 22.1465 15.7336 22.0877 15.8513C22.1152 15.8905 22.1269 15.918 22.1465 15.9454C23.0369 17.1966 23.9155 18.4518 24.8215 19.6873C25.0412 19.9893 25.1314 20.2796 25.1196 20.6443C25.0882 21.4209 25.0922 22.1975 25.0765 22.9742C25.0882 23.0408 25.0765 23.0957 25.0686 23.1585Z" fill="white"/>
<path d="M25.0686 23.1585C25.0765 23.0957 25.0883 23.0408 25.0883 22.9859C25.1 22.2093 25.1 21.4327 25.1314 20.6561C25.1471 20.2913 25.0569 20.0011 24.8333 19.6991C23.9233 18.4635 23.0447 17.2045 22.1583 15.9572C22.1387 15.9337 22.123 15.9062 22.0995 15.8631C22.1583 15.7454 22.2211 15.6238 22.276 15.514C22.5349 15.463 24.998 15.5571 25.2059 15.6277C26.363 17.1457 28.7007 20.1383 28.6967 20.2168C28.6928 20.3423 28.6144 20.4757 28.2731 20.5423C27.7279 20.6365 27.1827 20.7385 26.6336 20.8365C26.4297 20.8718 26.2218 20.9071 26.0178 20.9346C25.8884 20.9542 25.755 20.9934 25.6295 20.8404C25.6295 21.5896 25.6295 22.2956 25.6295 23.0251C25.7276 23.0055 25.8217 22.9859 25.9158 22.9663C26.2845 22.88 26.6532 22.7859 27.0258 22.7192C27.1749 22.6917 27.3357 22.731 27.4926 22.7467C27.5907 22.7584 27.6887 22.782 27.8025 22.8055C27.8221 22.3623 27.8417 21.9426 27.8613 21.5347C28.026 21.417 28.077 21.417 28.2731 21.5386C28.2535 21.9622 28.2339 22.3976 28.2143 22.8486C28.2653 22.8722 28.3163 22.8996 28.3673 22.9153C28.4967 22.9506 28.5516 23.0408 28.5477 23.1703C28.5359 23.4291 28.5242 23.688 28.5124 23.9429C28.4889 24.3313 28.4653 24.7235 28.4418 25.1118C28.4418 25.1353 28.4379 25.1628 28.4379 25.1863C28.4261 25.5903 28.4143 25.9943 28.3986 26.3983C28.3908 26.6258 28.3712 26.8493 28.3633 27.0768C28.3594 27.218 28.2771 27.2926 28.1594 27.3436C27.5436 27.6063 26.9278 27.8652 26.312 28.128C26.057 28.2378 25.8021 28.3477 25.5393 28.4575C25.5354 28.532 25.5275 28.5987 25.5275 28.6693C25.5275 29.0497 25.5275 29.4263 25.5236 29.8067C25.5119 31.0266 25.5001 32.2425 25.4844 33.4623C25.4805 33.8859 25.4609 34.3056 25.4491 34.7292C25.4413 35.0194 25.3471 35.0861 25.0647 34.9881C24.9823 34.9018 24.9863 34.7959 24.9941 34.69C25.0059 34.5723 25.0176 34.4507 25.0216 34.333C25.0255 33.1446 25.0216 31.9561 25.0294 30.7677C25.0333 30.0656 25.0529 29.3674 25.0647 28.6654C25.0647 28.5908 25.0647 28.5163 25.0647 28.4339C24.998 28.3986 24.9431 28.3712 24.8843 28.3477C24.6803 28.2653 24.4764 28.179 24.2685 28.1084C24.0998 28.0496 24.0371 27.9476 24.0371 27.7672C24.0332 26.9592 24.0175 26.1512 24.0057 25.3432C24.0057 25.3001 23.9979 25.2569 23.9939 25.1824C23.8214 25.1314 23.6449 25.0765 23.4644 25.0216C23.2958 24.9706 23.1232 24.9235 22.9545 24.8725C22.8055 24.8255 22.7545 24.7588 22.7545 24.6333C22.7545 24.4999 22.8408 24.4411 22.9506 24.4097C23.2016 24.3391 23.4527 24.2763 23.6998 24.2136C23.7939 24.1901 23.892 24.1626 24.0018 24.1312C24.0018 23.9626 24.0018 23.8135 24.0018 23.6645C24.0057 23.4644 24.0371 23.4213 24.2254 23.3703C24.3666 23.3311 24.5078 23.3036 24.649 23.2722C24.7745 23.233 24.9078 23.1977 25.0686 23.1585Z" fill="black"/>
<path d="M25.0098 35.7058C22.8918 35.7066 20.8212 35.0793 19.0598 33.9032C17.2984 32.727 15.9253 31.055 15.1143 29.0985C14.3032 27.1419 14.0906 24.9888 14.5033 22.9115C14.9161 20.8341 15.9356 18.9258 17.4329 17.4279C18.9303 15.93 20.8382 14.9098 22.9154 14.4963C24.9927 14.0828 27.1458 14.2946 29.1027 15.105C31.0595 15.9153 32.732 17.2877 33.9088 19.0487C35.0856 20.8097 35.7137 22.8801 35.7137 24.998C35.7105 27.8363 34.5819 30.5575 32.5754 32.5648C30.5688 34.5721 27.848 35.7017 25.0098 35.7058V35.7058Z" fill="white"/>
<path d="M25.0098 14.5883C27.0696 14.5883 29.0831 15.1992 30.7957 16.3436C32.5083 17.4881 33.8431 19.1147 34.6311 21.0177C35.4192 22.9208 35.6252 25.0148 35.223 27.035C34.8209 29.0551 33.8287 30.9107 32.372 32.3669C30.9152 33.8231 29.0593 34.8146 27.039 35.216C25.0187 35.6173 22.9247 35.4105 21.022 34.6218C19.1192 33.833 17.4931 32.4976 16.3493 30.7846C15.2055 29.0716 14.5954 27.0578 14.5962 24.998C14.6003 22.2378 15.6989 19.5919 17.6511 17.6405C19.6032 15.6891 22.2496 14.5915 25.0098 14.5883M25.0098 14C22.8377 14 20.7144 14.6441 18.9083 15.8509C17.1023 17.0576 15.6947 18.7728 14.8634 20.7796C14.0322 22.7863 13.8147 24.9945 14.2385 27.1249C14.6622 29.2553 15.7082 31.2121 17.2441 32.748C18.78 34.2839 20.7369 35.3299 22.8673 35.7537C24.9976 36.1774 27.2058 35.9599 29.2126 35.1287C31.2193 34.2975 32.9345 32.8899 34.1413 31.0838C35.348 29.2778 35.9922 27.1545 35.9922 24.9823C35.9922 22.0696 34.8351 19.2762 32.7755 17.2166C30.7159 15.1571 27.9225 14 25.0098 14V14Z" fill="black"/>
<path d="M25.0098 18.0007C25.6812 17.9892 26.3297 18.2446 26.8128 18.7108C27.296 19.1771 27.5744 19.8161 27.5867 20.4874V25.1941C27.5744 25.8655 27.296 26.5045 26.8128 26.9707C26.3297 27.437 25.6812 27.6924 25.0098 27.6809V27.6809C24.3384 27.6924 23.6899 27.437 23.2068 26.9707C22.7236 26.5045 22.4452 25.8655 22.4329 25.1941V20.4874C22.4452 19.8161 22.7236 19.1771 23.2068 18.7108C23.6899 18.2446 24.3384 17.9892 25.0098 18.0007V18.0007Z" fill="#CCCCCC" stroke="black" stroke-miterlimit="15.12"/>
<path d="M25.0098 29.2616V31.7993" stroke="black" stroke-width="1.5" stroke-miterlimit="15.12"/>
<path d="M22.88 31.7993H27.12" stroke="black" stroke-miterlimit="15.12" stroke-linecap="round"/>
<path d="M25.3785 24.7274H27.12" stroke="black" stroke-width="0.5" stroke-miterlimit="15.12" stroke-linecap="round"/>
<path d="M25.3785 23.3311H27.12" stroke="black" stroke-width="0.5" stroke-miterlimit="15.12" stroke-linecap="round"/>
<path d="M25.3785 20.5423H27.12" stroke="black" stroke-width="0.5" stroke-miterlimit="15.12" stroke-linecap="round"/>
<path d="M25.3785 21.9347H27.12" stroke="black" stroke-width="0.5" stroke-miterlimit="15.12" stroke-linecap="round"/>
<path d="M28.9007 25.1236C28.9007 26.1597 28.4907 27.1538 27.7602 27.8887C27.0297 28.6236 26.0381 29.0396 25.002 29.0458C23.9617 29.0458 22.9641 28.6326 22.2285 27.897C21.4929 27.1614 21.0797 26.1638 21.0797 25.1236V25.1236" stroke="black" stroke-miterlimit="15.12" stroke-linecap="round"/>
<circle cx="25" cy="25" r="11" fill="white" fill-opacity="0.75"/>
</svg>
