<!-- Copyright (c) 2022 FHNW, Switzerland. All rights reserved. -->
<!-- Licensed under MIT License, see LICENSE for details. -->

<svg width="100" height="100" viewBox="0 0 100 100" fill="none" xmlns="http://www.w3.org/2000/svg">
  <circle opacity="0.2" cx="50" cy="50" r="50" fill="#2F8CD4"/>
  <circle cx="50" cy="50" r="20" fill="#2F8CD4"/>
  <path fill="#000" d="M 61.149 45.122 L 61.149 57.663 C 61.149 58.815 60.214 59.753 59.058 59.753 L 40.945 59.753 C 39.789 59.753 38.854 58.815 38.854 57.663 L 38.854 45.122 C 38.854 43.967 39.789 43.031 40.945 43.031 L 44.776 43.031 L 45.313 41.598 C 45.616 40.784 46.395 40.244 47.266 40.244 L 52.731 40.244 C 53.601 40.244 54.381 40.784 54.686 41.598 L 55.224 43.031 L 59.058 43.031 C 60.214 43.031 61.149 43.967 61.149 45.122 Z M 55.224 51.391 C 55.224 48.509 52.885 46.167 50 46.167 C 47.119 46.167 44.776 48.509 44.776 51.391 C 44.776 54.276 47.119 56.616 50 56.616 C 52.885 56.616 55.224 54.276 55.224 51.391 Z M 53.834 51.391 C 53.834 53.503 52.113 55.224 50 55.224 C 47.89 55.224 46.169 53.503 46.169 51.391 C 46.169 49.282 47.89 47.56 50 47.56 C 52.113 47.56 53.834 49.282 53.834 51.391 Z"/>
</svg>