<svg width="50" height="50" viewBox="0 0 50 50" fill="none" xmlns="http://www.w3.org/2000/svg">
<path opacity="0.6" d="M25 43C34.9411 43 43 34.9411 43 25C43 15.0589 34.9411 7 25 7C15.0589 7 7 15.0589 7 25C7 34.9411 15.0589 43 25 43Z" fill="white"/>
<g clip-path="url(#clip0_11_40)">
<path d="M25.2496 36.1786C23.0855 36.1794 20.9698 35.5384 19.17 34.3366C17.3702 33.1349 15.9673 31.4264 15.1385 29.4273C14.3098 27.4282 14.0926 25.2282 14.5143 23.1055C14.936 20.9829 15.9777 19.0331 17.5077 17.5025C19.0377 15.972 20.9872 14.9296 23.1096 14.5071C25.2321 14.0846 27.4321 14.301 29.4316 15.129C31.431 15.957 33.14 17.3593 34.3424 19.1587C35.5448 20.958 36.1866 23.0735 36.1866 25.2376C36.1834 28.1376 35.0302 30.9181 32.9799 32.9691C30.9296 35.0201 28.1496 36.1743 25.2496 36.1786V36.1786Z" fill="white"/>
<path d="M25.2496 14.6012C27.3542 14.6012 29.4116 15.2253 31.1615 16.3947C32.9114 17.564 34.2752 19.2261 35.0805 21.1706C35.8857 23.1151 36.0962 25.2547 35.6853 27.3189C35.2744 29.383 34.2606 31.279 32.7721 32.7669C31.2836 34.2548 29.3873 35.2679 27.323 35.678C25.2587 36.0881 23.1191 35.8769 21.1749 35.0709C19.2307 34.2649 17.5692 32.9005 16.4005 31.1502C15.2318 29.3998 14.6084 27.3422 14.6092 25.2376C14.6134 22.4172 15.7359 19.7137 17.7306 17.7198C19.7253 15.7258 22.4293 14.6043 25.2496 14.6012M25.2496 14C23.0302 14 20.8606 14.6581 19.0152 15.8912C17.1699 17.1242 15.7316 18.8768 14.8822 20.9272C14.0329 22.9777 13.8107 25.234 14.2437 27.4108C14.6767 29.5875 15.7454 31.587 17.3148 33.1564C18.8841 34.7257 20.8836 35.7945 23.0604 36.2275C25.2372 36.6604 27.4934 36.4382 29.5439 35.5889C31.5944 34.7396 33.3469 33.3013 34.58 31.4559C35.813 29.6105 36.4711 27.441 36.4711 25.2215C36.4711 22.2454 35.2889 19.3912 33.1844 17.2867C31.08 15.1823 28.2257 14 25.2496 14V14Z" fill="black"/>
<path d="M19.2381 20.4283C19.119 20.4283 19.0048 20.4756 18.9207 20.5598C18.8365 20.644 18.7892 20.7582 18.7892 20.8772V29.125C18.7892 29.1838 18.8008 29.242 18.8234 29.2962C18.846 29.3504 18.8792 29.3997 18.9209 29.441C18.9626 29.4824 19.0121 29.5151 19.0666 29.5372C19.121 29.5593 19.1793 29.5704 19.2381 29.5699H27.2013L27.1532 29.7663L27.1052 29.9827L27.0531 30.1991L27.001 30.4155L26.9488 30.6319L26.8967 30.8483L26.8487 31.0648L26.7966 31.2812L26.7445 31.4976L26.6924 31.714L26.6402 31.9304L26.5882 32.1468C26.4679 32.6719 26.8046 32.3432 27.0891 32.1468L27.3937 31.9304L27.6943 31.714L27.9949 31.4976L28.2954 31.2812L28.596 31.0648L28.9006 30.8483L29.2012 30.6319L29.5017 30.4155L29.8023 30.1991L30.1069 29.9827L30.4075 29.7663L30.676 29.5699H31.6178C31.6766 29.5704 31.7349 29.5593 31.7893 29.5372C31.8437 29.5151 31.8932 29.4824 31.935 29.441C31.9767 29.3997 32.0098 29.3504 32.0324 29.2962C32.055 29.242 32.0667 29.1838 32.0667 29.125V20.8772C32.0667 20.7582 32.0194 20.644 31.9352 20.5598C31.851 20.4756 31.7369 20.4283 31.6178 20.4283H19.2381Z" stroke="black" stroke-miterlimit="10"/>
<path d="M29.9787 21.811H20.9053C20.7879 21.811 20.6928 21.9061 20.6928 22.0234V22.5324C20.6928 22.6497 20.7879 22.7448 20.9053 22.7448H29.9787C30.096 22.7448 30.1911 22.6497 30.1911 22.5324V22.0234C30.1911 21.9061 30.096 21.811 29.9787 21.811Z" fill="#CCCCCC" stroke="black" stroke-width="0.5" stroke-miterlimit="10"/>
<path d="M29.9787 23.7186H20.9053C20.7879 23.7186 20.6928 23.8137 20.6928 23.931V24.44C20.6928 24.5573 20.7879 24.6524 20.9053 24.6524H29.9787C30.096 24.6524 30.1911 24.5573 30.1911 24.44V23.931C30.1911 23.8137 30.096 23.7186 29.9787 23.7186Z" fill="#CCCCCC" stroke="black" stroke-width="0.5" stroke-miterlimit="10"/>
<path d="M29.9787 25.6263H20.9053C20.7879 25.6263 20.6928 25.7214 20.6928 25.8388V26.3477C20.6928 26.465 20.7879 26.5601 20.9053 26.5601H29.9787C30.096 26.5601 30.1911 26.465 30.1911 26.3477V25.8388C30.1911 25.7214 30.096 25.6263 29.9787 25.6263Z" fill="#CCCCCC" stroke="black" stroke-width="0.5" stroke-miterlimit="10"/>
</g>
<defs>
<clipPath id="clip0_11_40">
<rect width="22.4792" height="22.4792" fill="white" transform="translate(14 14)"/>
</clipPath>
</defs>
</svg>
