<svg width="50" height="50" viewBox="0 0 50 50" fill="none" xmlns="http://www.w3.org/2000/svg">
<path d="M24.998 35.8C30.9638 35.8 35.8 30.9638 35.8 24.998C35.8 19.0323 30.9638 14.1961 24.998 14.1961C19.0323 14.1961 14.1961 19.0323 14.1961 24.998C14.1961 30.9638 19.0323 35.8 24.998 35.8Z" fill="white"/>
<path d="M24.998 14.3922C30.8461 14.3922 35.6039 19.1499 35.6039 24.998C35.6039 30.8461 30.8461 35.6078 24.998 35.6078C19.1499 35.6078 14.3922 30.8461 14.3922 24.998C14.3922 19.1499 19.1499 14.3922 24.998 14.3922ZM24.998 14C18.9264 14 14 18.9264 14 24.998C14 31.0697 18.9264 35.9961 24.998 35.9961C31.0697 35.9961 35.9961 31.0697 35.9961 24.998C35.9961 18.9264 31.0736 14 24.998 14Z" fill="#020203"/>
<path d="M25.0686 23.1585C24.9078 23.1977 24.7745 23.2291 24.6372 23.2604C24.496 23.2957 24.3548 23.3193 24.2136 23.3585C24.0253 23.4095 23.9939 23.4566 23.99 23.6527C23.9861 23.8017 23.99 23.9547 23.99 24.1194C23.8763 24.1508 23.7821 24.1783 23.688 24.2018C23.437 24.2685 23.186 24.3312 22.9389 24.3979C22.829 24.4293 22.7427 24.4881 22.7427 24.6215C22.7427 24.747 22.7937 24.8137 22.9428 24.8607C23.1114 24.9156 23.284 24.9588 23.4527 25.0098C23.6331 25.0647 23.8096 25.1196 23.9822 25.1706C23.9861 25.2451 23.9939 25.2883 23.9939 25.3314C24.0057 26.1394 24.0214 26.9474 24.0253 27.7554C24.0253 27.9319 24.0881 28.0378 24.2567 28.0966C24.4646 28.1672 24.6686 28.2535 24.8725 28.3359C24.9314 28.3594 24.9824 28.3908 25.053 28.4222C25.053 28.5045 25.053 28.579 25.053 28.6536C25.0412 29.3557 25.0216 30.0538 25.0177 30.7559C25.0098 31.9443 25.0137 33.1328 25.0098 34.3212C25.0098 34.4389 24.9941 34.5605 24.9824 34.6782C24.9706 34.788 24.9667 34.8939 25.053 34.9763C25.3314 35.0743 25.4295 35.0076 25.4373 34.7174C25.4452 34.2938 25.4648 33.8741 25.4726 33.4505C25.4883 32.2307 25.5001 31.0148 25.5119 29.7949C25.5158 29.4145 25.5119 29.0379 25.5158 28.6575C25.5158 28.5908 25.5236 28.5202 25.5276 28.4457C25.7943 28.3319 26.0453 28.2221 26.3002 28.1162C26.916 27.8534 27.5318 27.5946 28.1476 27.3318C28.2653 27.2808 28.3477 27.2062 28.3516 27.065C28.3594 26.8376 28.379 26.614 28.3869 26.3865C28.4026 25.9825 28.4143 25.5785 28.4261 25.1745C28.4261 25.151 28.43 25.1235 28.43 25.1C28.4536 24.7117 28.4771 24.3195 28.5006 23.9312C28.5163 23.6723 28.5281 23.4134 28.5359 23.1585C28.5399 23.029 28.4849 22.9427 28.3555 22.9035C28.3045 22.8878 28.2535 22.8604 28.2025 22.8368C28.2221 22.3858 28.2457 21.9465 28.2614 21.5268C28.0692 21.4052 28.0143 21.4052 27.8495 21.5229C27.8299 21.9308 27.8103 22.3505 27.7907 22.7937C27.677 22.7702 27.5789 22.7466 27.4808 22.7349C27.3239 22.7192 27.1631 22.6839 27.0141 22.7074C26.6415 22.7741 26.2767 22.8721 25.9041 22.9545C25.81 22.978 25.7119 22.9937 25.6178 23.0133C25.6178 22.2838 25.6178 21.5778 25.6178 20.8286C25.7433 20.9816 25.8766 20.9424 26.0061 20.9228C26.21 20.8914 26.4179 20.86 26.6219 20.8247C27.1671 20.7267 27.7123 20.6286 28.2614 20.5305C28.4536 20.4952 28.5673 20.3697 28.685 20.205C27.5161 18.6675 26.3473 17.1339 25.1942 15.6159C24.9902 15.5453 22.5231 15.4512 22.2642 15.5022C22.2093 15.612 22.1466 15.7336 22.0877 15.8513C22.1152 15.8905 22.1269 15.918 22.1466 15.9454C23.0369 17.1966 23.9155 18.4517 24.8215 19.6873C25.0412 19.9893 25.1314 20.2795 25.1196 20.6443C25.0883 21.4209 25.0922 22.1975 25.0765 22.9741C25.0883 23.0408 25.0765 23.0957 25.0686 23.1585Z" fill="white"/>
<path d="M25.0686 23.1585C25.0765 23.0957 25.0883 23.0408 25.0883 22.9859C25.1 22.2093 25.1 21.4327 25.1314 20.6561C25.1471 20.2913 25.0569 20.0011 24.8333 19.699C23.9233 18.4635 23.0448 17.2045 22.1583 15.9572C22.1387 15.9337 22.123 15.9062 22.0995 15.8631C22.1583 15.7454 22.2211 15.6238 22.276 15.514C22.5349 15.463 24.998 15.5571 25.2059 15.6277C26.363 17.1456 28.7007 20.1383 28.6967 20.2168C28.6928 20.3423 28.6144 20.4756 28.2731 20.5423C27.7279 20.6365 27.1827 20.7384 26.6336 20.8365C26.4297 20.8718 26.2218 20.9071 26.0178 20.9346C25.8884 20.9542 25.755 20.9934 25.6295 20.8404C25.6295 21.5896 25.6295 22.2956 25.6295 23.0251C25.7276 23.0055 25.8217 22.9859 25.9159 22.9663C26.2845 22.88 26.6532 22.7859 27.0259 22.7192C27.1749 22.6917 27.3357 22.731 27.4926 22.7466C27.5907 22.7584 27.6887 22.7819 27.8025 22.8055C27.8221 22.3623 27.8417 21.9426 27.8613 21.5347C28.026 21.417 28.077 21.417 28.2731 21.5386C28.2535 21.9622 28.2339 22.3976 28.2143 22.8486C28.2653 22.8722 28.3163 22.8996 28.3673 22.9153C28.4967 22.9506 28.5516 23.0408 28.5477 23.1702C28.5359 23.4291 28.5242 23.688 28.5124 23.9429C28.4889 24.3312 28.4653 24.7235 28.4418 25.1118C28.4418 25.1353 28.4379 25.1628 28.4379 25.1863C28.4261 25.5903 28.4143 25.9943 28.3986 26.3983C28.3908 26.6258 28.3712 26.8493 28.3633 27.0768C28.3594 27.218 28.2771 27.2926 28.1594 27.3435C27.5436 27.6063 26.9278 27.8652 26.312 28.128C26.0571 28.2378 25.8021 28.3476 25.5393 28.4575C25.5354 28.532 25.5275 28.5987 25.5275 28.6693C25.5275 29.0497 25.5275 29.4263 25.5236 29.8067C25.5119 31.0265 25.5001 32.2425 25.4844 33.4623C25.4805 33.8859 25.4609 34.3056 25.4491 34.7292C25.4413 35.0194 25.3471 35.0861 25.0647 34.988C24.9824 34.9017 24.9863 34.7958 24.9941 34.6899C25.0059 34.5723 25.0177 34.4507 25.0216 34.333C25.0255 33.1446 25.0216 31.9561 25.0294 30.7677C25.0333 30.0656 25.053 29.3674 25.0647 28.6653C25.0647 28.5908 25.0647 28.5163 25.0647 28.4339C24.998 28.3986 24.9431 28.3712 24.8843 28.3476C24.6803 28.2653 24.4764 28.179 24.2685 28.1084C24.0998 28.0495 24.0371 27.9476 24.0371 27.7671C24.0332 26.9592 24.0175 26.1512 24.0057 25.3432C24.0057 25.3 23.9979 25.2569 23.9939 25.1824C23.8214 25.1314 23.6449 25.0765 23.4644 25.0216C23.2958 24.9706 23.1232 24.9235 22.9545 24.8725C22.8055 24.8254 22.7545 24.7588 22.7545 24.6333C22.7545 24.4999 22.8408 24.4411 22.9506 24.4097C23.2016 24.3391 23.4527 24.2763 23.6998 24.2136C23.7939 24.19 23.892 24.1626 24.0018 24.1312C24.0018 23.9625 24.0018 23.8135 24.0018 23.6645C24.0057 23.4644 24.0371 23.4213 24.2254 23.3703C24.3666 23.3311 24.5078 23.3036 24.649 23.2722C24.7745 23.233 24.9078 23.1977 25.0686 23.1585Z" fill="black"/>
<g clip-path="url(#clip0_11_2)">
<path d="M25.2496 36.1786C23.0855 36.1794 20.9698 35.5384 19.17 34.3366C17.3702 33.1349 15.9673 31.4264 15.1386 29.4273C14.3098 27.4282 14.0926 25.2282 14.5143 23.1055C14.936 20.9829 15.9777 19.0331 17.5077 17.5025C19.0377 15.972 20.9872 14.9296 23.1096 14.5071C25.2321 14.0846 27.4322 14.301 29.4316 15.129C31.431 15.957 33.14 17.3593 34.3424 19.1587C35.5448 20.958 36.1866 23.0735 36.1866 25.2376C36.1834 28.1376 35.0302 30.9181 32.9799 32.9691C30.9297 35.0201 28.1497 36.1743 25.2496 36.1786V36.1786Z" fill="white"/>
<path d="M25.2496 14.6012C27.3543 14.6012 29.4116 15.2253 31.1615 16.3947C32.9114 17.564 34.2752 19.2261 35.0805 21.1706C35.8857 23.1151 36.0962 25.2547 35.6853 27.3189C35.2744 29.383 34.2606 31.279 32.7721 32.7669C31.2836 34.2548 29.3873 35.2679 27.323 35.678C25.2587 36.0881 23.1191 35.8769 21.1749 35.0709C19.2307 34.2649 17.5692 32.9005 16.4005 31.1502C15.2318 29.3998 14.6084 27.3422 14.6092 25.2376C14.6134 22.4172 15.7359 19.7137 17.7306 17.7198C19.7253 15.7258 22.4293 14.6043 25.2496 14.6012M25.2496 14C23.0302 14 20.8606 14.6581 19.0153 15.8912C17.1699 17.1242 15.7316 18.8768 14.8822 20.9272C14.0329 22.9777 13.8107 25.234 14.2437 27.4108C14.6767 29.5875 15.7454 31.587 17.3148 33.1564C18.8841 34.7257 20.8836 35.7945 23.0604 36.2275C25.2372 36.6604 27.4934 36.4382 29.5439 35.5889C31.5944 34.7396 33.3469 33.3013 34.58 31.4559C35.813 29.6105 36.4712 27.441 36.4712 25.2215C36.4712 22.2454 35.2889 19.3912 33.1844 17.2867C31.08 15.1823 28.2257 14 25.2496 14V14Z" fill="black"/>
<path d="M19.2381 20.4283C19.119 20.4283 19.0049 20.4756 18.9207 20.5598C18.8365 20.644 18.7892 20.7582 18.7892 20.8772V29.125C18.7892 29.1838 18.8008 29.242 18.8234 29.2962C18.8461 29.3504 18.8792 29.3997 18.9209 29.441C18.9626 29.4824 19.0122 29.5151 19.0666 29.5372C19.121 29.5593 19.1793 29.5704 19.2381 29.5699H27.2013L27.1533 29.7663L27.1052 29.9827L27.0531 30.1991L27.001 30.4155L26.9489 30.6319L26.8968 30.8483L26.8487 31.0648L26.7966 31.2812L26.7445 31.4976L26.6924 31.714L26.6403 31.9304L26.5882 32.1468C26.4679 32.6719 26.8046 32.3432 27.0891 32.1468L27.3937 31.9304L27.6943 31.714L27.9949 31.4976L28.2954 31.2812L28.596 31.0648L28.9006 30.8483L29.2012 30.6319L29.5018 30.4155L29.8023 30.1991L30.1069 29.9827L30.4075 29.7663L30.676 29.5699H31.6178C31.6766 29.5704 31.7349 29.5593 31.7893 29.5372C31.8437 29.5151 31.8932 29.4824 31.935 29.441C31.9767 29.3997 32.0098 29.3504 32.0324 29.2962C32.0551 29.242 32.0667 29.1838 32.0667 29.125V20.8772C32.0667 20.7582 32.0194 20.644 31.9352 20.5598C31.851 20.4756 31.7369 20.4283 31.6178 20.4283H19.2381Z" stroke="black" stroke-miterlimit="10"/>
<path d="M29.9787 21.811H20.9052C20.7879 21.811 20.6928 21.9061 20.6928 22.0234V22.5324C20.6928 22.6497 20.7879 22.7448 20.9052 22.7448H29.9787C30.096 22.7448 30.1911 22.6497 30.1911 22.5324V22.0234C30.1911 21.9061 30.096 21.811 29.9787 21.811Z" fill="#CCCCCC" stroke="black" stroke-width="0.5" stroke-miterlimit="10"/>
<path d="M29.9787 23.7186H20.9052C20.7879 23.7186 20.6928 23.8137 20.6928 23.931V24.44C20.6928 24.5573 20.7879 24.6524 20.9052 24.6524H29.9787C30.096 24.6524 30.1911 24.5573 30.1911 24.44V23.931C30.1911 23.8137 30.096 23.7186 29.9787 23.7186Z" fill="#CCCCCC" stroke="black" stroke-width="0.5" stroke-miterlimit="10"/>
<path d="M29.9787 25.6263H20.9052C20.7879 25.6263 20.6928 25.7214 20.6928 25.8388V26.3477C20.6928 26.465 20.7879 26.5601 20.9052 26.5601H29.9787C30.096 26.5601 30.1911 26.465 30.1911 26.3477V25.8388C30.1911 25.7214 30.096 25.6263 29.9787 25.6263Z" fill="#CCCCCC" stroke="black" stroke-width="0.5" stroke-miterlimit="10"/>
</g>
<defs>
<clipPath id="clip0_11_2">
<rect width="22.4792" height="22.4792" fill="white" transform="translate(14 14)"/>
</clipPath>
</defs>
</svg>
