<svg width="50" height="50" viewBox="0 0 50 50" fill="none" xmlns="http://www.w3.org/2000/svg">
<path opacity="0.2" d="M25 45C36.0457 45 45 36.0457 45 25C45 13.9543 36.0457 5 25 5C13.9543 5 5 13.9543 5 25C5 36.0457 13.9543 45 25 45Z" fill="#37DE8A"/>
<path d="M24.998 35.8C30.9638 35.8 35.8 30.9638 35.8 24.998C35.8 19.0323 30.9638 14.1961 24.998 14.1961C19.0323 14.1961 14.1961 19.0323 14.1961 24.998C14.1961 30.9638 19.0323 35.8 24.998 35.8Z" fill="white"/>
<path d="M24.998 14.3922C30.8461 14.3922 35.6039 19.1499 35.6039 24.998C35.6039 30.8461 30.8461 35.6078 24.998 35.6078C19.1499 35.6078 14.3922 30.8461 14.3922 24.998C14.3922 19.1499 19.1499 14.3922 24.998 14.3922ZM24.998 14C18.9264 14 14 18.9264 14 24.998C14 31.0697 18.9264 35.9961 24.998 35.9961C31.0697 35.9961 35.9961 31.0697 35.9961 24.998C35.9961 18.9264 31.0736 14 24.998 14Z" fill="#020203"/>
<path d="M24.0841 15.8121C24.19 15.6591 24.2724 15.4944 24.4136 15.3767C24.4842 15.3179 24.5587 15.2708 24.6372 15.2237C24.6843 15.1963 24.7431 15.1845 24.7941 15.1727C24.8529 15.157 24.9117 15.11 24.9784 15.1296C25.002 15.0982 25.0333 15.11 25.0608 15.1139C25.0961 15.1139 25.1275 15.1178 25.1628 15.1217C25.1981 15.1257 25.2294 15.1296 25.2647 15.1296C25.2961 15.1296 25.3236 15.1217 25.355 15.1257C25.3863 15.1296 25.4177 15.1374 25.4491 15.1453C25.4648 15.1492 25.4805 15.157 25.4962 15.161C25.5393 15.1492 25.5864 15.1374 25.6374 15.1217C25.6531 15.1531 25.6609 15.1767 25.6727 15.1963C25.6884 15.2159 25.708 15.2473 25.7276 15.2473C25.7825 15.2512 25.7943 15.3061 25.8296 15.3218C25.8766 15.3414 25.8884 15.3806 25.9119 15.4159C25.9472 15.4747 25.9943 15.5297 26.0374 15.5846C26.1041 15.6709 26.1747 15.7493 26.1943 15.8591C26.2532 15.8866 26.2257 15.9533 26.2453 15.9964C26.261 16.0356 26.261 16.0866 26.2688 16.1337C26.2963 16.2984 26.2688 16.4632 26.2532 16.624C26.2453 16.7259 26.21 16.8318 26.1708 16.9299C26.1159 17.075 26.1198 17.177 26.1943 17.2908C26.2532 17.381 26.3277 17.4673 26.3826 17.5575C26.4493 17.6673 26.5552 17.7104 26.665 17.7653C26.7631 17.8124 26.8533 17.8791 26.9278 17.9615C26.9905 18.0281 27.0533 18.0948 27.1082 18.1654C27.2023 18.2909 27.2965 18.4164 27.3788 18.5498C27.4808 18.7106 27.5867 18.8675 27.7201 19.0087C27.7397 19.0283 27.7632 19.0479 27.7868 19.0597C27.8534 19.1028 27.9005 19.1695 27.9633 19.2166C28.0652 19.299 28.179 19.3696 28.277 19.4558C28.4026 19.5617 28.5398 19.6441 28.6771 19.7304C28.7673 19.7892 28.8575 19.8441 28.936 19.9108C28.9831 19.9501 29.0105 20.0089 29.0497 20.0599C29.1439 20.1893 29.2223 20.3266 29.289 20.4756C29.3321 20.5698 29.3714 20.6639 29.4027 20.758C29.4302 20.8522 29.4655 20.9424 29.4929 21.0365C29.5243 21.1463 29.5596 21.2562 29.5832 21.3699C29.6067 21.468 29.6302 21.5699 29.6498 21.668C29.6616 21.7347 29.6655 21.8014 29.6851 21.868C29.7048 21.9386 29.6969 22.0053 29.693 22.0759C29.693 22.1034 29.6891 22.1269 29.6891 22.1544C29.6891 22.3269 29.6459 22.3858 29.5832 22.5819C29.5518 22.6839 29.5165 22.7819 29.4812 22.8839C29.4498 22.982 29.4223 23.0839 29.4145 23.1898C29.4106 23.2448 29.387 23.2957 29.3674 23.3703C29.3674 23.3742 29.3361 23.3938 29.3361 23.4173C29.3321 23.4879 29.2851 23.5311 29.2498 23.5742C29.0968 23.7429 28.9046 23.8645 28.6889 23.9312C28.6222 23.9508 28.5791 23.9782 28.5438 24.0371C28.4575 24.1783 28.3555 24.3077 28.2417 24.4254C28.1162 24.4175 27.9986 24.4097 27.8848 24.3704C27.775 24.3351 27.673 24.2763 27.5554 24.241C27.5554 24.2685 27.5475 24.292 27.5514 24.3077C27.5789 24.3783 27.5593 24.445 27.5593 24.5156C27.5593 24.5548 27.5475 24.594 27.571 24.6332C27.5828 24.6529 27.5789 24.6921 27.5671 24.7078C27.5318 24.7509 27.5475 24.798 27.5357 24.845C27.524 24.9039 27.5436 24.9627 27.5122 25.0215C27.4847 25.0686 27.5161 25.1314 27.4691 25.1745C27.4377 25.3745 27.3475 25.5707 27.2729 25.7668C27.2376 25.8531 27.1867 25.9354 27.1435 26.0178C27.0847 26.1394 27.0415 26.2688 26.9866 26.3943C26.9552 26.4689 26.9866 26.5512 27.0023 26.6297C27.0023 26.6414 27.0102 26.6493 27.0141 26.6611C27.018 26.7513 27.018 26.8454 27.018 26.9356C27.018 26.9827 27.0258 27.0297 27.0298 27.0729C27.0337 27.12 27.0023 27.167 27.0415 27.2141C27.0455 27.218 27.0415 27.2376 27.0415 27.2455C27.0415 27.3671 27.0298 27.4887 27.0455 27.6102C27.0611 27.7397 27.0415 27.8691 27.0847 27.9946C27.0925 28.0142 27.0847 28.0378 27.0808 28.0613C27.0768 28.1005 27.0768 28.1358 27.0729 28.175C27.069 28.2182 27.0533 28.2653 27.069 28.2966C27.0925 28.3398 27.0494 28.3594 27.0572 28.3947C27.0729 28.4771 27.069 28.5673 27.0925 28.6496C27.1317 28.7869 27.1553 28.9281 27.2141 29.0615C27.2063 29.2066 27.3122 29.3164 27.3279 29.4537C27.3906 29.5086 27.3592 29.6067 27.422 29.6655C27.4181 29.7322 27.4573 29.791 27.4573 29.8499C27.4573 29.9636 27.4808 30.0773 27.4612 30.1911C27.4494 30.2538 27.4534 30.3205 27.4455 30.3833C27.4377 30.4382 27.422 30.4892 27.4141 30.5441C27.4063 30.5951 27.4181 30.6539 27.3985 30.701C27.3749 30.752 27.3788 30.799 27.371 30.85C27.3671 30.8657 27.3632 30.8853 27.3592 30.901C27.3514 30.9285 27.3357 30.9599 27.3435 30.9834C27.3749 31.0697 27.3514 31.152 27.3475 31.2344C27.3396 31.3913 27.3671 31.5443 27.3396 31.7012C27.371 31.7835 27.3435 31.8698 27.3475 31.9522C27.3475 31.9953 27.3553 32.0385 27.3592 32.0816C27.3632 32.1248 27.3475 32.164 27.371 32.2111C27.3906 32.2581 27.3475 32.3209 27.3867 32.3719C27.3671 32.4386 27.4024 32.5013 27.3985 32.5758C27.4808 32.6386 27.5083 32.7406 27.5122 32.8386C27.52 32.9955 27.575 33.1406 27.6063 33.2936C27.6338 33.4348 27.6769 33.5721 27.7083 33.7133C27.7162 33.7525 27.7044 33.7957 27.7005 33.8349C27.6338 33.9408 27.5122 33.929 27.4141 33.9878C27.473 34.082 27.524 34.18 27.5593 34.2859C27.5553 34.3487 27.5475 34.4154 27.5475 34.4781C27.5475 34.5801 27.4847 34.6429 27.4181 34.7056C27.3749 34.7488 27.1906 34.7958 27.1278 34.7919C27.0611 34.788 26.9905 34.788 26.9239 34.7801C26.7787 34.7645 26.6572 34.8154 26.5434 34.9017C26.5003 34.9331 26.461 34.9684 26.4257 35.0076C26.3512 35.0861 26.2492 35.1175 26.1551 35.1135C25.9904 35.1057 25.8296 35.1292 25.6648 35.1096C25.5903 35.1018 25.5118 35.1018 25.4373 35.0939C25.2412 35.0704 25.0529 35.0273 24.8764 34.9331C24.8294 34.9096 24.7862 34.8782 24.7431 34.8507C24.6999 34.8194 24.6842 34.7684 24.6764 34.7135C24.6803 34.7095 24.6921 34.6978 24.6921 34.686C24.696 34.6468 24.7156 34.6154 24.7392 34.5919C24.8137 34.5213 24.8882 34.4507 24.9863 34.4115C25.0333 34.3958 25.0765 34.3683 25.1157 34.3409C25.151 34.3134 25.2138 34.3291 25.2216 34.2703C25.2216 34.2663 25.2255 34.2663 25.2294 34.2663C25.3 34.2546 25.3471 34.2075 25.4059 34.1722C25.4138 34.1683 25.4256 34.1644 25.4373 34.1604C25.4569 34.1212 25.4844 34.082 25.5315 34.0781C25.555 34.0428 25.5785 34.0114 25.5981 33.98C25.6177 33.9486 25.6295 33.9172 25.6491 33.8859C25.6687 33.8545 25.6884 33.8231 25.7197 33.7721C25.5864 33.7839 25.4883 33.7211 25.3746 33.7054C25.2647 33.6898 25.1706 33.627 25.0569 33.5839C25.0451 33.5721 25.0255 33.5329 24.998 33.525C24.951 33.5172 24.9667 33.474 24.9431 33.4505C24.8961 33.4034 24.8921 33.3328 24.9196 33.2779C24.9392 33.2426 24.9353 33.2073 24.951 33.1524C24.951 33.1524 24.9745 33.1485 24.9823 33.1328C25.0373 33.0347 25.1314 33.0073 25.2334 32.9916C25.2608 32.9877 25.2883 32.9798 25.3157 32.9759C25.3393 32.972 25.3628 32.9681 25.3981 32.9641C25.4099 32.9681 25.4373 32.9916 25.453 32.9837C25.5315 32.9524 25.606 32.9759 25.6844 32.9798C25.7707 32.9837 25.8374 32.9563 25.9041 32.9053C26.0178 32.8112 26.1237 32.7092 26.2139 32.5758C26.1982 32.5131 26.2061 32.4386 26.1865 32.364C26.1708 32.313 26.1786 32.2581 26.1669 32.2032C26.1512 32.113 26.1394 32.0228 26.1237 31.9326C26.112 31.8581 26.108 31.7835 26.0884 31.7129C26.0727 31.6698 26.0923 31.611 26.0688 31.5757C26.0414 31.5325 26.0767 31.4776 26.0335 31.4423C26.0453 31.3599 26.0178 31.2776 26.0021 31.1991C25.9668 31.0226 25.9511 30.8422 25.908 30.6696C25.8962 30.6225 25.8962 30.5716 25.8884 30.5206C25.8649 30.3637 25.8452 30.2029 25.8256 30.046C25.8256 30.0381 25.8099 30.0303 25.806 30.0224C25.7433 30.0303 25.6805 30.0499 25.6217 30.046C25.3393 30.0303 25.0569 30.0107 24.7745 29.9911C24.7352 29.9871 24.6999 29.9714 24.6646 29.9636C24.6254 29.8342 24.6097 29.7087 24.5901 29.5871C24.5744 29.4929 24.5783 29.3988 24.547 29.3047C24.5313 29.2615 24.5391 29.2066 24.5352 29.1556C24.5274 29.0497 24.5156 28.9399 24.5038 28.834C24.4921 28.7242 24.4921 28.6143 24.4646 28.5045C24.445 28.4378 24.4607 28.3594 24.4528 28.2888C24.4411 28.2182 24.4489 28.1476 24.4254 28.077C24.4097 28.0299 24.4254 27.9789 24.4136 27.9279C24.3979 27.8456 24.4136 27.7593 24.4018 27.6769C24.3862 27.5671 24.4136 27.4533 24.3979 27.3474C24.3862 27.2612 24.394 27.1788 24.3979 27.0964C24.4058 26.9238 24.3822 26.7552 24.4058 26.5826C24.3705 26.4885 24.4018 26.3904 24.4018 26.2963C24.4018 26.2414 24.3901 26.1904 24.3901 26.1355C24.3901 26.0806 24.4058 26.0217 24.3979 25.9668C24.3901 25.9001 24.3744 25.8374 24.3548 25.7707C24.3234 25.6609 24.2842 25.5511 24.2528 25.4412C24.2293 25.3628 24.194 25.2883 24.1547 25.1941C24.1351 25.2412 24.1155 25.2726 24.1038 25.3079C24.0763 25.3824 24.0488 25.4608 24.0214 25.5354C24.0096 25.5667 24.0018 25.5981 23.9626 25.6138C23.9429 25.6217 23.9312 25.6491 23.9233 25.6726C23.8488 25.8531 23.7978 26.0453 23.7076 26.2178C23.7154 26.2884 23.6645 26.3433 23.6488 26.41C23.6331 26.4728 23.586 26.5316 23.5742 26.5944C23.5586 26.6807 23.5076 26.7552 23.5076 26.8415C23.4605 26.8964 23.4958 26.9788 23.4487 27.0337C23.437 27.0494 23.433 27.0729 23.4213 27.0886C23.3428 27.1984 23.3036 27.3239 23.2565 27.4533C23.2173 27.5632 23.1742 27.6769 23.1271 27.7867C23.0722 27.9083 23.0369 28.0378 22.9859 28.1594C22.9232 28.3162 22.8682 28.4731 22.8055 28.63C22.7663 28.7281 22.731 28.8261 22.6996 28.9281C22.6682 29.0223 22.6172 29.1164 22.5858 29.2105C22.5623 29.2811 22.5309 29.3478 22.5113 29.4184C22.4917 29.489 22.4642 29.5596 22.4407 29.6263C22.4329 29.6498 22.4289 29.6773 22.4133 29.693C22.3387 29.7753 22.323 29.8812 22.2838 29.9793C22.2564 30.046 22.225 30.1087 22.2054 30.1715C22.1426 30.3676 22.0524 30.5559 21.9857 30.752C21.9504 30.8618 21.8955 30.9638 21.8641 31.0775C21.8602 31.0893 21.8485 31.105 21.8524 31.1167C21.8563 31.203 21.8131 31.2658 21.77 31.3325C21.7229 31.4109 21.6955 31.4972 21.6602 31.5835C21.6013 31.7325 21.5386 31.8816 21.4837 32.0306C21.4209 32.2032 21.3464 32.3758 21.2797 32.5484C21.2405 32.6504 21.2091 32.7523 21.1542 32.8504C21.1424 32.87 21.1424 32.8896 21.1307 32.921C21.1032 32.9092 21.0797 32.9014 21.0562 32.8935C21.0915 32.7955 21.1268 32.7013 21.1621 32.6111C21.213 32.4817 21.2719 32.3523 21.315 32.2189C21.3699 32.0424 21.4562 31.8737 21.4954 31.6894C21.4994 31.6816 21.5072 31.6737 21.5111 31.6619C21.5621 31.5482 21.5857 31.4266 21.6288 31.3129C21.6484 31.2619 21.6327 31.1952 21.6641 31.1442C21.6719 31.1324 21.6759 31.1167 21.6837 31.1089C21.77 30.9873 21.8053 30.8422 21.8524 30.701C21.8759 30.6265 21.9073 30.5559 21.9347 30.4853C21.974 30.3833 22.0093 30.2813 22.0446 30.1793C22.1112 30.0107 22.1583 29.8342 22.2328 29.6655C22.2524 29.6224 22.2171 29.5675 22.2642 29.5322C22.2642 29.4576 22.3309 29.4106 22.3505 29.34C22.3819 29.238 22.4289 29.136 22.4682 29.0379C22.5074 28.9399 22.5388 28.8379 22.5741 28.7399C22.5937 28.6771 22.6251 28.6183 22.6486 28.5555C22.6957 28.4339 22.7427 28.3123 22.7859 28.1907C22.8447 28.0338 22.9114 27.877 22.9663 27.7201C23.0291 27.5396 23.0997 27.3671 23.1624 27.1866C23.1742 27.1474 23.1742 27.1043 23.1742 27.065C23.1742 27.0062 23.1899 26.9513 23.2212 26.9003C23.2958 26.7787 23.3389 26.6454 23.3899 26.5159C23.4683 26.3237 23.535 26.1276 23.6135 25.9394C23.6566 25.8374 23.6841 25.7276 23.7429 25.6295C23.7547 25.606 23.7468 25.5707 23.7508 25.5471C23.739 25.5157 23.7272 25.4961 23.7194 25.4765C23.7429 25.3745 23.7861 25.2765 23.8214 25.1824C23.8567 25.0882 23.9037 24.998 23.9469 24.9039C23.9155 24.8843 23.9469 24.8294 23.8959 24.8058C23.8645 24.7901 23.8488 24.7352 23.8253 24.696C23.8292 24.6882 23.837 24.6803 23.8449 24.6685C23.8214 24.6254 23.837 24.5744 23.841 24.5273C23.841 24.4763 23.8488 24.4214 23.8527 24.3626C23.892 24.3234 23.9312 24.2802 23.9743 24.2371C23.9704 24.1665 23.9979 24.088 23.9743 24.0135C23.9822 23.9665 24.0057 23.9115 23.9939 23.8684C23.9782 23.8135 23.9861 23.7664 23.9861 23.7154C23.9861 23.6684 23.9939 23.6174 23.9939 23.5703C23.9939 23.4526 23.99 23.335 23.9939 23.2173C23.9979 23.0957 24.0253 22.9741 24.0135 22.8565C23.9939 22.6368 24.0449 22.425 24.0332 22.2093C24.0214 22.0171 24.0449 21.8288 24.0528 21.6405C24.0606 21.4523 24.0685 21.264 24.092 21.0757C24.1155 20.8875 24.1312 20.6953 24.2136 20.5188C24.2175 20.4011 24.2842 20.3031 24.3156 20.1972C24.3469 20.0952 24.394 19.9971 24.4371 19.8951C24.4803 19.7932 24.5274 19.6912 24.5666 19.5853C24.6058 19.4715 24.6529 19.3617 24.6882 19.248C24.7196 19.1578 24.7627 19.0675 24.8019 18.9773C24.8451 18.8871 24.8725 18.7969 24.9157 18.7067C24.9157 18.7028 24.9235 18.7028 24.9235 18.6988C24.9392 18.6008 24.9549 18.5027 24.9706 18.4164C24.8764 18.2949 24.7588 18.2203 24.6254 18.1537C24.5744 18.1419 24.5156 18.1262 24.4568 18.1184C24.3979 18.1105 24.3352 18.1105 24.2803 18.1066C24.1273 18.0281 24.1312 17.8948 24.1508 17.7536C24.092 17.6791 24.1194 17.581 24.0841 17.4986C24.0528 17.4202 24.0332 17.3378 24.0096 17.2672C23.8645 17.1809 23.8645 17.1809 23.8331 17.1182C23.841 17.0946 23.8488 17.0711 23.8527 17.0593C23.8998 16.9966 23.9351 16.9377 23.9822 16.8907C24.0057 16.8671 24.0096 16.8397 24.0018 16.8201C23.9743 16.7456 23.99 16.6906 23.99 16.6357C23.9665 16.6318 23.9469 16.6279 23.9312 16.624C23.9155 16.573 23.8998 16.522 23.8841 16.471C23.9861 16.369 24.0018 16.2317 24.0332 16.0905C23.9469 16.0984 23.8684 16.0552 23.79 16.0984C23.7861 16.1023 23.7743 16.0984 23.7664 16.0984C23.6448 16.0709 23.5233 16.1219 23.4056 16.0945C23.386 16.0749 23.3703 16.0552 23.3546 16.0395C23.3821 15.9768 23.4252 15.9493 23.4958 15.9415C23.5625 15.9336 23.6292 15.8944 23.6998 15.8944C23.7743 15.8944 23.837 15.8552 23.9116 15.8552C23.9665 15.8513 24.0292 15.8277 24.0841 15.8121Z" fill="black"/>
</svg>
